<svg width="330" height="157" viewBox="0 0 330 157" fill="none" xmlns="http://www.w3.org/2000/svg">
<path d="M161.993 44.652H157.212C157.075 43.8679 156.824 43.1733 156.457 42.5682C156.091 41.9545 155.635 41.4347 155.089 41.0085C154.544 40.5824 153.922 40.2628 153.223 40.0497C152.533 39.8281 151.787 39.7173 150.986 39.7173C149.563 39.7173 148.301 40.0753 147.202 40.7912C146.102 41.4986 145.241 42.5384 144.619 43.9105C143.997 45.2741 143.686 46.9403 143.686 48.9091C143.686 50.9119 143.997 52.5994 144.619 53.9716C145.25 55.3352 146.111 56.3665 147.202 57.0653C148.301 57.7557 149.558 58.1009 150.973 58.1009C151.757 58.1009 152.49 57.9986 153.172 57.794C153.862 57.581 154.48 57.2699 155.026 56.8608C155.58 56.4517 156.044 55.9489 156.419 55.3523C156.803 54.7557 157.067 54.0739 157.212 53.3068L161.993 53.3324C161.814 54.5767 161.426 55.7443 160.83 56.8352C160.241 57.9261 159.47 58.8892 158.516 59.7244C157.561 60.5511 156.445 61.1989 155.166 61.6676C153.888 62.1278 152.469 62.358 150.909 62.358C148.608 62.358 146.554 61.8253 144.747 60.7599C142.94 59.6946 141.517 58.1562 140.477 56.1449C139.438 54.1335 138.918 51.7216 138.918 48.9091C138.918 46.0881 139.442 43.6761 140.49 41.6733C141.538 39.6619 142.966 38.1236 144.773 37.0582C146.58 35.9929 148.625 35.4602 150.909 35.4602C152.366 35.4602 153.722 35.6648 154.974 36.0739C156.227 36.483 157.344 37.0838 158.324 37.8764C159.304 38.6605 160.109 39.6236 160.74 40.7656C161.379 41.8991 161.797 43.1946 161.993 44.652ZM174.697 62.3835C172.779 62.3835 171.118 61.9616 169.711 61.1179C168.305 60.2741 167.214 59.0937 166.439 57.5767C165.672 56.0597 165.288 54.2869 165.288 52.2585C165.288 50.2301 165.672 48.4531 166.439 46.9276C167.214 45.402 168.305 44.2173 169.711 43.3736C171.118 42.5298 172.779 42.108 174.697 42.108C176.615 42.108 178.277 42.5298 179.683 43.3736C181.089 44.2173 182.176 45.402 182.943 46.9276C183.718 48.4531 184.106 50.2301 184.106 52.2585C184.106 54.2869 183.718 56.0597 182.943 57.5767C182.176 59.0937 181.089 60.2741 179.683 61.1179C178.277 61.9616 176.615 62.3835 174.697 62.3835ZM174.723 58.6761C175.762 58.6761 176.632 58.3906 177.331 57.8196C178.029 57.2401 178.549 56.4645 178.89 55.4929C179.24 54.5213 179.414 53.4389 179.414 52.2457C179.414 51.044 179.24 49.9574 178.89 48.9858C178.549 48.0057 178.029 47.2259 177.331 46.6463C176.632 46.0668 175.762 45.777 174.723 45.777C173.657 45.777 172.771 46.0668 172.064 46.6463C171.365 47.2259 170.841 48.0057 170.491 48.9858C170.15 49.9574 169.98 51.044 169.98 52.2457C169.98 53.4389 170.15 54.5213 170.491 55.4929C170.841 56.4645 171.365 57.2401 172.064 57.8196C172.771 58.3906 173.657 58.6761 174.723 58.6761ZM188.034 62V42.3636H192.457V45.7003H192.688C193.097 44.5753 193.774 43.6974 194.72 43.0668C195.666 42.4276 196.795 42.108 198.108 42.108C199.438 42.108 200.558 42.4318 201.47 43.0795C202.391 43.7187 203.038 44.5923 203.413 45.7003H203.618C204.053 44.6094 204.786 43.7401 205.817 43.0923C206.857 42.4361 208.088 42.108 209.511 42.108C211.318 42.108 212.793 42.679 213.935 43.821C215.077 44.9631 215.648 46.6293 215.648 48.8196V62H211.007V49.5355C211.007 48.3168 210.683 47.4261 210.036 46.8636C209.388 46.2926 208.595 46.0071 207.658 46.0071C206.541 46.0071 205.668 46.3565 205.037 47.0554C204.415 47.7457 204.104 48.6449 204.104 49.7528V62H199.565V49.3438C199.565 48.3295 199.259 47.5199 198.645 46.9148C198.04 46.3097 197.247 46.0071 196.267 46.0071C195.602 46.0071 194.997 46.1776 194.452 46.5185C193.906 46.8509 193.472 47.3239 193.148 47.9375C192.824 48.5426 192.662 49.25 192.662 50.0597V62H188.034ZM220.343 69.3636V42.3636H224.894V45.6108H225.162C225.401 45.1335 225.738 44.6264 226.172 44.0895C226.607 43.544 227.195 43.0795 227.936 42.696C228.678 42.304 229.624 42.108 230.775 42.108C232.292 42.108 233.659 42.4957 234.878 43.2713C236.105 44.0384 237.077 45.1761 237.793 46.6847C238.517 48.1847 238.88 50.0256 238.88 52.2074C238.88 54.3636 238.526 56.196 237.819 57.7045C237.111 59.2131 236.148 60.3636 234.929 61.1562C233.711 61.9489 232.33 62.3452 230.787 62.3452C229.662 62.3452 228.729 62.1577 227.988 61.7827C227.246 61.4077 226.65 60.956 226.198 60.4276C225.755 59.8906 225.409 59.3835 225.162 58.9062H224.971V69.3636H220.343ZM224.881 52.1818C224.881 53.4517 225.06 54.5639 225.418 55.5185C225.784 56.473 226.309 57.2187 226.99 57.7557C227.681 58.2841 228.516 58.5483 229.496 58.5483C230.519 58.5483 231.375 58.2756 232.066 57.7301C232.756 57.1761 233.276 56.4219 233.625 55.4673C233.983 54.5043 234.162 53.4091 234.162 52.1818C234.162 50.9631 233.988 49.8807 233.638 48.9347C233.289 47.9886 232.769 47.2472 232.078 46.7102C231.388 46.1733 230.527 45.9048 229.496 45.9048C228.507 45.9048 227.668 46.1648 226.978 46.6847C226.287 47.2045 225.763 47.9332 225.405 48.8707C225.056 49.8082 224.881 50.9119 224.881 52.1818ZM247.471 35.8182V62H242.843V35.8182H247.471ZM257.88 62.3963C256.636 62.3963 255.515 62.1747 254.518 61.7315C253.529 61.2798 252.745 60.6151 252.165 59.7372C251.594 58.8594 251.309 57.777 251.309 56.4901C251.309 55.3821 251.513 54.4659 251.923 53.7415C252.332 53.017 252.89 52.4375 253.597 52.0028C254.305 51.5682 255.102 51.2401 255.988 51.0185C256.883 50.7884 257.808 50.6222 258.762 50.5199C259.913 50.4006 260.846 50.294 261.562 50.2003C262.278 50.098 262.798 49.9446 263.121 49.7401C263.454 49.527 263.62 49.1989 263.62 48.7557V48.679C263.62 47.7159 263.335 46.9702 262.763 46.4418C262.192 45.9134 261.37 45.6491 260.296 45.6491C259.163 45.6491 258.263 45.8963 257.599 46.3906C256.942 46.8849 256.499 47.4687 256.269 48.142L251.948 47.5284C252.289 46.3352 252.852 45.3381 253.636 44.5369C254.42 43.7273 255.379 43.1222 256.512 42.7216C257.646 42.3125 258.898 42.108 260.271 42.108C261.217 42.108 262.158 42.2188 263.096 42.4403C264.033 42.6619 264.89 43.0284 265.665 43.5398C266.441 44.0426 267.063 44.7287 267.532 45.598C268.009 46.4673 268.248 47.554 268.248 48.858V62H263.799V59.3026H263.646C263.364 59.848 262.968 60.3594 262.457 60.8366C261.954 61.3054 261.319 61.6847 260.552 61.9744C259.793 62.2557 258.903 62.3963 257.88 62.3963ZM259.082 58.9957C260.011 58.9957 260.816 58.8125 261.498 58.446C262.18 58.071 262.704 57.5767 263.07 56.9631C263.445 56.3494 263.633 55.6804 263.633 54.956V52.642C263.488 52.7614 263.241 52.8722 262.891 52.9744C262.55 53.0767 262.167 53.1662 261.741 53.2429C261.315 53.3196 260.893 53.3878 260.475 53.4474C260.058 53.5071 259.695 53.5582 259.388 53.6009C258.698 53.6946 258.08 53.848 257.535 54.0611C256.989 54.2741 256.559 54.5724 256.244 54.956C255.928 55.331 255.771 55.8168 255.771 56.4134C255.771 57.2656 256.082 57.9091 256.704 58.3438C257.326 58.7784 258.119 58.9957 259.082 58.9957ZM272.901 62V42.3636H277.529V62H272.901ZM275.228 39.5767C274.495 39.5767 273.864 39.3338 273.336 38.848C272.808 38.3537 272.543 37.7614 272.543 37.071C272.543 36.3722 272.808 35.7798 273.336 35.294C273.864 34.7997 274.495 34.5526 275.228 34.5526C275.969 34.5526 276.6 34.7997 277.12 35.294C277.648 35.7798 277.913 36.3722 277.913 37.071C277.913 37.7614 277.648 38.3537 277.12 38.848C276.6 39.3338 275.969 39.5767 275.228 39.5767ZM286.916 50.4943V62H282.288V42.3636H286.711V45.7003H286.941C287.393 44.6009 288.113 43.7273 289.102 43.0795C290.099 42.4318 291.331 42.108 292.797 42.108C294.152 42.108 295.332 42.3977 296.338 42.9773C297.352 43.5568 298.136 44.3963 298.69 45.4957C299.252 46.5952 299.529 47.929 299.521 49.4972V62H294.893V50.2131C294.893 48.9006 294.552 47.8736 293.87 47.1321C293.197 46.3906 292.264 46.0199 291.071 46.0199C290.261 46.0199 289.541 46.1989 288.91 46.5568C288.288 46.9062 287.798 47.4134 287.44 48.0781C287.091 48.7429 286.916 49.5483 286.916 50.4943ZM314.031 42.3636V45.9432H302.743V42.3636H314.031ZM305.529 37.6591H310.157V56.0938C310.157 56.7159 310.251 57.1932 310.439 57.5256C310.635 57.8494 310.89 58.071 311.206 58.1903C311.521 58.3097 311.87 58.3693 312.254 58.3693C312.544 58.3693 312.808 58.348 313.047 58.3054C313.294 58.2628 313.481 58.2244 313.609 58.1903L314.389 61.8082C314.142 61.8935 313.788 61.9872 313.328 62.0895C312.876 62.1918 312.322 62.2514 311.666 62.2685C310.507 62.3026 309.463 62.1278 308.534 61.7443C307.605 61.3523 306.868 60.7472 306.322 59.929C305.785 59.1108 305.521 58.0881 305.529 56.8608V37.6591Z" fill="black"/>
<path d="M93.9999 72.4167C94.0093 75.2764 93.1698 78.0974 91.5499 80.65C89.6292 83.7088 86.6765 86.2816 83.0224 88.0801C79.3684 89.8787 75.1574 90.832 70.8611 90.8333C67.2681 90.8408 63.7237 90.1727 60.5166 88.8833L45 93L50.1722 80.65C48.5523 78.0974 47.7129 75.2764 47.7222 72.4167C47.7239 68.9972 48.9217 65.6456 51.1814 62.7372C53.4411 59.8289 56.6736 57.4788 60.5166 55.9501C63.7237 54.6607 67.2681 53.9926 70.8611 54.0001H72.2222C77.8962 54.2492 83.2554 56.1554 87.2737 59.3536C91.292 62.5518 93.6869 66.8173 93.9999 71.3334V72.4167Z" fill="#2563EB" stroke="#2563EB" stroke-width="4.33333" stroke-linecap="round" stroke-linejoin="round"/>
<circle cx="62" cy="72" r="2" fill="white"/>
<circle cx="72" cy="72" r="2" fill="white"/>
<circle cx="82" cy="72" r="2" fill="white"/>
<path d="M159.882 80.1602C159.719 78.6405 159.035 77.4573 157.828 76.6104C156.634 75.7636 155.079 75.3402 153.165 75.3402C151.819 75.3402 150.665 75.5432 149.702 75.9492C148.74 76.3552 148.003 76.9062 147.493 77.6023C146.982 78.2983 146.721 79.0929 146.71 79.9862C146.71 80.7286 146.878 81.3724 147.214 81.9176C147.562 82.4628 148.032 82.9268 148.624 83.3097C149.215 83.6809 149.871 83.9941 150.59 84.2493C151.309 84.5045 152.034 84.7191 152.765 84.8931L156.106 85.7283C157.451 86.0415 158.745 86.465 159.986 86.9986C161.239 87.5322 162.358 88.205 163.344 89.017C164.342 89.8291 165.131 90.8093 165.711 91.9577C166.291 93.1062 166.581 94.4518 166.581 95.9947C166.581 98.0827 166.047 99.9214 164.98 101.511C163.913 103.088 162.37 104.324 160.352 105.217C158.345 106.099 155.914 106.539 153.061 106.539C150.288 106.539 147.881 106.11 145.839 105.252C143.809 104.393 142.22 103.141 141.072 101.493C139.935 99.846 139.32 97.8391 139.227 95.4727H145.578C145.671 96.7139 146.054 97.7463 146.727 98.57C147.4 99.3936 148.276 100.008 149.354 100.414C150.445 100.82 151.663 101.023 153.009 101.023C154.412 101.023 155.642 100.815 156.697 100.397C157.765 99.9678 158.6 99.3762 159.203 98.6222C159.806 97.8565 160.114 96.9633 160.125 95.9425C160.114 95.0144 159.841 94.2488 159.308 93.6456C158.774 93.0308 158.026 92.5204 157.063 92.1143C156.112 91.6967 154.998 91.3255 153.722 91.0007L149.668 89.9567C146.733 89.2027 144.413 88.06 142.707 86.5288C141.014 84.9859 140.167 82.9384 140.167 80.3864C140.167 78.2867 140.735 76.448 141.872 74.8704C143.021 73.2927 144.581 72.0689 146.553 71.1989C148.525 70.3172 150.758 69.8764 153.252 69.8764C155.781 69.8764 157.997 70.3172 159.899 71.1989C161.813 72.0689 163.315 73.2811 164.406 74.8356C165.496 76.3784 166.059 78.1533 166.094 80.1602H159.882ZM175.973 116.023C175.114 116.023 174.32 115.953 173.589 115.814C172.87 115.686 172.296 115.536 171.866 115.362L173.328 110.455C174.244 110.721 175.062 110.849 175.782 110.837C176.501 110.826 177.133 110.6 177.678 110.159C178.235 109.73 178.705 109.01 179.088 108.001L179.627 106.557L169.935 79.2727H176.617L182.777 99.4574H183.055L189.232 79.2727H195.931L185.23 109.237C184.731 110.652 184.07 111.864 183.246 112.873C182.423 113.894 181.414 114.671 180.219 115.205C179.035 115.75 177.62 116.023 175.973 116.023ZM221.415 86.3374L215.672 86.9638C215.51 86.3838 215.226 85.8385 214.82 85.3281C214.425 84.8177 213.892 84.4059 213.219 84.0927C212.546 83.7795 211.722 83.6229 210.748 83.6229C209.437 83.6229 208.335 83.9071 207.442 84.4755C206.56 85.0439 206.125 85.7805 206.137 86.6854C206.125 87.4626 206.409 88.0948 206.989 88.582C207.581 89.0692 208.555 89.4695 209.913 89.7827L214.472 90.7571C217.001 91.3023 218.88 92.1665 220.109 93.3498C221.351 94.533 221.977 96.0817 221.989 97.9957C221.977 99.6778 221.484 101.163 220.51 102.45C219.547 103.726 218.207 104.724 216.49 105.443C214.773 106.162 212.801 106.522 210.574 106.522C207.303 106.522 204.669 105.838 202.674 104.469C200.679 103.088 199.49 101.168 199.107 98.7092L205.249 98.1175C205.528 99.324 206.119 100.235 207.024 100.849C207.929 101.464 209.107 101.772 210.557 101.772C212.053 101.772 213.254 101.464 214.158 100.849C215.075 100.235 215.533 99.4748 215.533 98.57C215.533 97.8043 215.237 97.1721 214.646 96.6733C214.066 96.1745 213.161 95.7917 211.931 95.5249L207.372 94.5678C204.809 94.0342 202.912 93.1352 201.682 91.8707C200.453 90.5947 199.844 88.9822 199.855 87.0334C199.844 85.3861 200.29 83.9593 201.195 82.7528C202.111 81.5348 203.382 80.5952 205.006 79.9339C206.641 79.2611 208.526 78.9247 210.661 78.9247C213.793 78.9247 216.258 79.5917 218.056 80.9258C219.866 82.2598 220.985 84.0637 221.415 86.3374ZM240.529 79.2727V84.1449H225.164V79.2727H240.529ZM228.958 72.8693H235.257V97.9609C235.257 98.8078 235.384 99.4574 235.639 99.9098C235.906 100.351 236.254 100.652 236.684 100.815C237.113 100.977 237.588 101.058 238.11 101.058C238.505 101.058 238.864 101.029 239.189 100.971C239.526 100.913 239.781 100.861 239.955 100.815L241.016 105.739C240.68 105.855 240.198 105.983 239.572 106.122C238.957 106.261 238.203 106.342 237.31 106.365C235.732 106.412 234.311 106.174 233.047 105.652C231.782 105.118 230.779 104.295 230.036 103.181C229.306 102.067 228.946 100.675 228.958 99.005V72.8693ZM257.342 106.522C254.663 106.522 252.348 105.965 250.4 104.852C248.462 103.726 246.972 102.137 245.928 100.084C244.884 98.0189 244.362 95.5887 244.362 92.793C244.362 90.0437 244.884 87.6308 245.928 85.5543C246.983 83.4663 248.456 81.8422 250.347 80.6822C252.238 79.5105 254.46 78.9247 257.012 78.9247C258.659 78.9247 260.213 79.1915 261.675 79.7251C263.148 80.2472 264.448 81.0592 265.573 82.1612C266.71 83.2633 267.603 84.6669 268.252 86.3722C268.902 88.0658 269.227 90.0843 269.227 92.4276V94.359H247.32V90.1133H263.189C263.177 88.9068 262.916 87.8338 262.406 86.8942C261.895 85.9429 261.182 85.1947 260.266 84.6495C259.361 84.1043 258.305 83.8317 257.099 83.8317C255.811 83.8317 254.68 84.1449 253.706 84.7713C252.731 85.3861 251.971 86.1982 251.426 87.2074C250.893 88.205 250.62 89.3013 250.608 90.4961V94.2024C250.608 95.7569 250.893 97.0909 251.461 98.2045C252.029 99.3066 252.824 100.153 253.845 100.745C254.866 101.325 256.06 101.615 257.429 101.615C258.346 101.615 259.175 101.487 259.918 101.232C260.66 100.965 261.304 100.577 261.849 100.066C262.394 99.556 262.806 98.9238 263.085 98.1697L268.966 98.831C268.595 100.385 267.887 101.743 266.843 102.903C265.811 104.051 264.488 104.944 262.876 105.582C261.263 106.209 259.419 106.522 257.342 106.522ZM274.556 106V79.2727H280.576V83.8143H280.89C281.446 82.283 282.369 81.0882 283.656 80.2298C284.944 79.3597 286.481 78.9247 288.267 78.9247C290.077 78.9247 291.603 79.3655 292.844 80.2472C294.097 81.1172 294.978 82.3062 295.489 83.8143H295.767C296.359 82.3294 297.356 81.1462 298.76 80.2646C300.175 79.3713 301.852 78.9247 303.789 78.9247C306.248 78.9247 308.255 79.7019 309.809 81.2564C311.364 82.8108 312.141 85.0787 312.141 88.06V106H305.825V89.0344C305.825 87.3756 305.384 86.1634 304.502 85.3977C303.621 84.6205 302.542 84.2319 301.266 84.2319C299.746 84.2319 298.557 84.7075 297.699 85.6587C296.852 86.5984 296.428 87.8222 296.428 89.3303V106H290.251V88.7734C290.251 87.393 289.834 86.291 288.998 85.4673C288.175 84.6437 287.096 84.2319 285.762 84.2319C284.857 84.2319 284.033 84.4639 283.291 84.9279C282.549 85.3803 281.957 86.0241 281.516 86.8594C281.075 87.683 280.855 88.6458 280.855 89.7479V106H274.556Z" fill="#2563EB"/>
<circle cx="69" cy="122" r="8.5" fill="#2563EB" stroke="#2563EB"/>
<circle cx="69" cy="122" r="4.75" fill="white" stroke="#2563EB" stroke-width="0.5"/>
<path d="M34.5 62V98.5C34.5 99.0523 34.0523 99.5 33.5 99.5H23.5C16.7 99.1 14.3333 93.6667 14 91V69C14 63.8744 18.5341 61.5664 20.8984 61.0226C20.967 61.0068 21.0355 61 21.1059 61H33.5C34.0523 61 34.5 61.4477 34.5 62Z" stroke="#2563EB" stroke-width="6" stroke-linecap="round"/>
<path d="M104 61V98C104 98.5523 104.448 99 105 99H115.268C122.234 98.5948 124.659 93.0909 125 90.3896V68.1039C125 62.9092 120.351 60.5715 117.93 60.0221C117.862 60.0066 117.794 60 117.724 60H105C104.448 60 104 60.4477 104 61Z" stroke="#2563EB" stroke-width="6" stroke-linecap="round"/>
<path d="M77.5 123H97C104.5 123 108.5 117.2 108.5 110V101" stroke="#2563EB" stroke-width="5" stroke-linecap="round"/>
<path d="M25 58V52C25.5 39.5 36.1 28.2 52.5 27H85C93.1667 27.1667 110.3 33.4 113.5 57" stroke="#2563EB" stroke-width="5" stroke-linecap="round"/>
</svg>
